<svg xmlns="http://www.w3.org/2000/svg" version="1.1" xmlns:xlink="http://www.w3.org/1999/xlink" xmlns:svgjs="http://svgjs.dev/svgjs" width="1500" height="1500" viewBox="0 0 1500 1500"><rect width="1500" height="1500" fill="#000000"></rect><g transform="matrix(0.6666666666666666,0,0,0.6666666666666666,249.39393939393943,673.6026888131597)"><svg viewBox="0 0 396 61" data-background-color="#121212" preserveAspectRatio="xMidYMid meet" height="231" width="1500" xmlns="http://www.w3.org/2000/svg" xmlns:xlink="http://www.w3.org/1999/xlink"><g id="tight-bounds" transform="matrix(1,0,0,1,0.2400000000000091,-0.23872738703082064)"><svg viewBox="0 0 395.52 61.477454774061655" height="61.477454774061655" width="395.52"><g><svg viewBox="0 0 449.83022269228434 69.91913726631016" height="61.477454774061655" width="395.52"><g transform="matrix(1,0,0,1,54.310222692284334,9.663209274866311)"><svg viewBox="0 0 395.52 50.59271871657754" height="50.59271871657754" width="395.52"><g id="textblocktransform"><svg viewBox="0 0 395.52 50.59271871657754" height="50.59271871657754" width="395.52" id="textblock"><g><svg viewBox="0 0 395.52 50.59271871657754" height="50.59271871657754" width="395.52"><g transform="matrix(1,0,0,1,0,0)"><svg width="395.52" viewBox="4 -29.4 233.74 29.9" height="50.59271871657754" data-palette-color="#e1410d"><path d="M10.6 0L4 0 4-29.4 10.6-29.4 10.6-17.2 30.2-17.2 30.2-29.4 36.8-29.4 36.8 0 30.2 0 30.2-12.4 10.6-12.4 10.6 0ZM48.1 0L40.8 0 55.45-29.4 65.3-29.4 79.9 0 72.2 0 69.25-6.35 51.35-6.35 48.1 0ZM60.05-24.9L53.15-11.25 67.4-11.25 60.55-24.9 60.05-24.9ZM115.25 0.5L115.25 0.5Q112.8 0.5 111-0.5 109.2-1.5 107.45-3.2L107.45-3.2Q105.55-5.2 102.85-7.8L102.85-7.8Q101.6-9.1 100.3-9.95 99-10.8 97.37-11.25 95.75-11.7 93.35-11.7L93.35-11.7 91-11.7 91 0 84.4 0 84.4-25.4 83.9-29.4 91-29.4 91-16.6 93.8-16.6Q94.8-16.6 95.45-16.85 96.1-17.1 96.65-17.65L96.65-17.65Q98.05-19.05 99.85-21.15 101.65-23.25 103.37-25.48 105.1-27.7 106.35-29.4L106.35-29.4 114.45-29.4 112.4-26.4Q111-24.95 109.4-23.25 107.8-21.55 106.25-19.93 104.7-18.3 103.45-17.07 102.2-15.85 101.6-15.3L101.6-15.3Q102.95-14.85 104.07-14.15 105.2-13.45 106.85-12.1L106.85-12.1Q108.1-11.1 109.27-10.05 110.45-9 112-7.55L112-7.55Q113.75-5.95 115.3-5.2 116.85-4.45 117.92-4.25 119-4.05 119.3-4.05L119.3-4.05 118.3 0Q118.15 0.15 117.4 0.33 116.65 0.5 115.25 0.5ZM151.09 0L123.79 0 123.79-29.4 154.89-29.4 154.89-24.6 130.39-24.6 130.39-17.7 149.09-17.7 149.09-12.75 130.39-12.75 130.39-4.8 155.09-4.8 157.09-0.55Q157.09-0.35 155.74-0.18 154.39 0 151.09 0L151.09 0ZM189.39 0L162.09 0 162.09-29.4 193.19-29.4 193.19-24.6 168.69-24.6 168.69-17.7 187.39-17.7 187.39-12.75 168.69-12.75 168.69-4.8 193.39-4.8 195.39-0.55Q195.39-0.35 194.04-0.18 192.69 0 189.39 0L189.39 0ZM207.49 0L200.89 0 200.89-25.4 200.39-29.4 207.99-29.4 219.29-9.4 230.99-29.4 237.74-29.4 237.74 0 231.14 0 231.14-18.65 230.59-18.65 228.64-14.3 222.34-3 216.29-3 209.99-14.3 207.99-18.65 207.49-18.65 207.49 0Z" opacity="1" transform="matrix(1,0,0,1,0,0)" fill="#ffffff" class="wordmark-text-0" data-fill-palette-color="primary" id="text-0"></path></svg></g></svg></g></svg></g></svg></g><g><svg viewBox="0 0 42.36649602854958 69.91913726631016" height="69.91913726631016" width="42.36649602854958"><g><svg xmlns="http://www.w3.org/2000/svg" xmlns:xlink="http://www.w3.org/1999/xlink" version="1.1" x="0" y="0" viewBox="24.072999999999997 5.852730941208653 52.94500000000001 87.37726905879136" enable-background="new 0 0 100 100" xml:space="preserve" width="42.36649602854958" height="69.91913726631016" class="icon-icon-0" data-fill-palette-color="accent" id="icon-0"><path d="M42.793 20.007c0 0-0.369 0.429-0.737 1.129C42.058 21.138 42.955 21.225 42.793 20.007z" fill="#ffffff" data-fill-palette-color="accent"></path><g fill="#e1410d" data-fill-palette-color="accent"><path d="M64.119 24.702c0.365-2.023-0.01-3.758-1.117-5.158-2.596-3.281-8.281-3.624-8.883-3.653-4.539-1.672-8.212-1.876-10.918-0.606-2.068 0.97-2.88 2.499-3.094 2.98-0.287 0.054-0.571 0.12-0.851 0.194-1.591-1.49-3.344-4.392-4.383-10.032 0 0 0.458-0.809 0.277-2.556 0 0-1.94-0.315-1.62 1.671 0 0 1.004 6.544 5.275 11.045-2.726 0.852-4.922 2.588-5.331 2.925-2.02 0.066-4.089 0.181-6.215 0.361l-3.186 40.316 52.944-33.115C77.018 29.074 72.35 26.776 64.119 24.702zM61.499 31.58c0 0-0.36 8.281-12.347 6.1 0 0-7.243 4.322-10.348-2.682-2.478 1.71-7.027-0.096-5.391-5.149-0.569-0.71-2.812-4.938 0.759-8.204 0.828-0.624 2.794-1.974 5.058-2.626 0.011 0.012 0.022 0.023 0.033 0.033 0.818 0.789 1.742 1.502 2.792 2.084l0 0c-0.045 0.085-0.089 0.176-0.133 0.271l0 0c-0.001 0.003-0.002 0.007-0.004 0.009-0.02 0.043-0.041 0.081-0.06 0.127 0.002 0 0.003 0 0.005 0-0.47 1.114-0.835 2.775-0.083 4.388 0 0 8.168 7.157 12.302 1.215 0 0 0.857-2.242 0.309-4.572-0.015-0.003-0.031-0.005-0.045-0.006-0.449-1.694-1.662-3.499-4.502-4.725 0 0-4.25-2.428-7.053 2.166 0 0.007 0 0.012 0.001 0.019-0.554-0.019-1.785-0.173-3.012-1.117-0.011-0.009-0.02-0.018-0.03-0.025 0.194-0.046 0.391-0.085 0.589-0.118l0.155-0.025 0.052-0.149c0.007-0.016 0.666-1.794 2.894-2.832 2.579-1.203 6.123-0.985 10.533 0.646l0.039 0.016 0.043 0.002c0.061 0.001 5.993 0.252 8.528 3.453 1.005 1.271 1.344 2.856 1.013 4.716-0.125 0.548-0.316 1.132-0.582 1.758C63.016 26.349 67.562 30.427 61.499 31.58z" fill="#ffffff" data-fill-palette-color="accent"></path><polygon points="25.351,74.245 76.001,40.29 77.018,29.932 24.073,63.087  " fill="#ffffff" data-fill-palette-color="accent"></polygon><polygon points="26.992,93.23 74.834,57.207 75.48,47.83 26.038,82.18  " fill="#ffffff" data-fill-palette-color="accent"></polygon></g></svg></g></svg></g></svg></g><defs></defs></svg><rect width="395.52" height="61.477454774061655" fill="none" stroke="none" visibility="hidden"></rect></g></svg></g></svg>