<svg xmlns="http://www.w3.org/2000/svg" version="1.1" xmlns:xlink="http://www.w3.org/1999/xlink" xmlns:svgjs="http://svgjs.dev/svgjs" width="1500" height="1687" viewBox="0 0 1500 1687"><g transform="matrix(1,0,0,1,0.00017216230924077536,0)"><svg viewBox="0 0 320 360" data-background-color="#ffffff" preserveAspectRatio="xMidYMid meet" height="1687" width="1500" xmlns="http://www.w3.org/2000/svg" xmlns:xlink="http://www.w3.org/1999/xlink"><g id="tight-bounds" transform="matrix(1,0,0,1,-0.00003672795929787753,0)"><svg viewBox="0 0 320 360" height="360" width="320"><g><svg></svg></g><g><svg viewBox="0 0 320 360" height="360" width="320"><g><path transform="translate(-32.1528,-12.1528) scale(3.84303,3.84303)" d="M88.492 50l1.711-2.963c2.946-5.102 1.198-11.626-3.904-14.572l-2.963-1.711v-3.422c0-5.891-4.776-10.667-10.667-10.667h-3.422l-1.711-2.963c-2.946-5.102-9.47-6.85-14.572-3.904l-2.964 1.71-2.963-1.711c-5.102-2.945-11.626-1.197-14.572 3.905l-1.711 2.963h-3.422c-5.891 0-10.667 4.776-10.667 10.667v3.422l-2.963 1.711c-5.102 2.946-6.85 9.47-3.904 14.572l1.71 2.963-1.711 2.963c-2.945 5.102-1.197 11.626 3.905 14.572l2.963 1.711v3.422c0 5.891 4.776 10.667 10.667 10.667h3.422l1.711 2.963c2.946 5.102 9.47 6.85 14.572 3.904l2.963-1.71 2.963 1.711c5.102 2.946 11.626 1.198 14.572-3.904l1.711-2.963h3.422c5.891 0 10.667-4.776 10.667-10.667v-3.422l2.963-1.711c5.102-2.946 6.85-9.47 3.904-14.572zM85.832 33.273c2.252 1.3 3.862 3.399 4.535 5.91 0.673 2.511 0.328 5.135-0.972 7.386l-1.441 2.497-4.618-7.999v-9.236zM73.72 73.72l-15.038 8.682h-17.364l-15.038-8.682-8.682-15.038v-17.364l8.682-15.038 15.038-8.682h17.364l15.038 8.682 8.682 15.038v17.364zM82.401 60.549v8.158l-7.065 4.079zM72.786 75.336l-4.079 7.065h-8.158zM57.065 83.335l-7.065 4.079-7.065-4.079zM39.451 82.401h-8.158l-4.079-7.065zM24.664 72.786l-7.065-4.079v-8.158zM16.665 57.065l-4.079-7.065 4.079-7.065zM17.599 39.451v-8.158l7.065-4.079zM27.214 24.664l4.079-7.065h8.158zM42.935 16.665l7.065-4.079 7.065 4.079zM60.549 17.599h8.158l4.079 7.065zM75.336 27.214l7.065 4.079v8.158zM83.335 42.935l4.079 7.065-4.079 7.065zM72.668 17.599c2.6 0 5.044 1.012 6.883 2.851 1.838 1.838 2.851 4.283 2.851 6.883v2.883l-7.999-4.618-4.618-7.999zM53.43 10.606c2.252-1.3 4.875-1.645 7.386-0.972 2.511 0.673 4.61 2.284 5.91 4.535l1.441 2.497h-9.236l-7.999-4.618zM33.273 14.168c1.3-2.252 3.399-3.862 5.91-4.535 2.511-0.673 5.135-0.328 7.386 0.972l2.497 1.441-7.999 4.618h-9.236zM17.599 27.332c0-2.6 1.012-5.044 2.851-6.883 1.838-1.838 4.283-2.851 6.883-2.851h2.883l-4.618 7.999-7.999 4.618zM10.606 46.57c-1.3-2.252-1.645-4.875-0.972-7.386 0.673-2.511 2.284-4.61 4.535-5.91l2.497-1.441v9.236l-4.618 7.999zM14.168 66.727c-2.252-1.3-3.862-3.399-4.535-5.91-0.673-2.511-0.328-5.135 0.972-7.386l1.441-2.497 4.618 7.999v9.236zM27.332 82.401c-2.6 0-5.044-1.012-6.883-2.851-1.838-1.838-2.851-4.283-2.851-6.883v-2.883l7.999 4.618 4.618 7.999zM46.57 89.394c-2.252 1.3-4.875 1.645-7.386 0.972-2.511-0.673-4.61-2.284-5.91-4.535l-1.441-2.497h9.236l7.999 4.618zM66.727 85.832c-1.3 2.252-3.399 3.862-5.91 4.535-2.511 0.673-5.135 0.328-7.386-0.972l-2.497-1.441 7.999-4.618h9.236zM82.401 72.668c0 2.6-1.012 5.044-2.851 6.883-1.838 1.838-4.283 2.851-6.883 2.851h-2.883l4.618-7.999 7.999-4.618zM90.367 60.816c-0.673 2.511-2.284 4.61-4.535 5.91l-2.497 1.441v-9.236l4.618-7.999 1.441 2.497c1.3 2.253 1.646 4.876 0.973 7.387z" fill="#000000" fill-rule="nonzero" stroke="none" stroke-width="1" stroke-linecap="butt" stroke-linejoin="miter" stroke-miterlimit="10" stroke-dasharray="" stroke-dashoffset="0" font-family="none" font-weight="none" font-size="none" text-anchor="none" style="mix-blend-mode: normal" data-fill-palette-color="tertiary"></path></g><g transform="matrix(1,0,0,1,64,126.48494779872331)"><svg viewBox="0 0 192 107.03010440255339" height="107.03010440255339" width="192"><g><svg viewBox="0 0 351.28410380487804 195.82278283954946" height="107.03010440255339" width="192"><g transform="matrix(1,0,0,1,159.28410380487804,11.862610931969854)"><svg viewBox="0 0 192 172.09756097560975" height="172.09756097560975" width="192"><g id="textblocktransform"><svg viewBox="0 0 192 172.09756097560975" height="172.09756097560975" width="192" id="textblock"><g><svg viewBox="0 0 192 172.09756097560975" height="172.09756097560975" width="192"><g transform="matrix(1,0,0,1,0,0)"><svg width="192" viewBox="4 -29.4 32.8 29.4" height="172.09756097560975" data-palette-color="#000000"><path d="M10.6 0L4 0 4-29.4 10.6-29.4 10.6-17.2 30.2-17.2 30.2-29.4 36.8-29.4 36.8 0 30.2 0 30.2-12.4 10.6-12.4 10.6 0Z" opacity="1" transform="matrix(1,0,0,1,0,0)" fill="#000000" class="wordmark-text-0" data-fill-palette-color="primary" id="text-0"></path></svg></g></svg></g></svg></g></svg></g><g><svg viewBox="0 0 118.656 195.82278283954946" height="195.82278283954946" width="118.656"><g><svg xmlns="http://www.w3.org/2000/svg" xmlns:xlink="http://www.w3.org/1999/xlink" version="1.1" x="0" y="0" viewBox="24.072999999999997 5.852730941208653 52.94500000000001 87.37726905879136" enable-background="new 0 0 100 100" xml:space="preserve" width="118.656" height="195.82278283954946" class="icon-icon-0" data-fill-palette-color="accent" id="icon-0"><path d="M42.793 20.007c0 0-0.369 0.429-0.737 1.129C42.058 21.138 42.955 21.225 42.793 20.007z" fill="#000000" data-fill-palette-color="accent"></path><g fill="#000000" data-fill-palette-color="accent"><path d="M64.119 24.702c0.365-2.023-0.01-3.758-1.117-5.158-2.596-3.281-8.281-3.624-8.883-3.653-4.539-1.672-8.212-1.876-10.918-0.606-2.068 0.97-2.88 2.499-3.094 2.98-0.287 0.054-0.571 0.12-0.851 0.194-1.591-1.49-3.344-4.392-4.383-10.032 0 0 0.458-0.809 0.277-2.556 0 0-1.94-0.315-1.62 1.671 0 0 1.004 6.544 5.275 11.045-2.726 0.852-4.922 2.588-5.331 2.925-2.02 0.066-4.089 0.181-6.215 0.361l-3.186 40.316 52.944-33.115C77.018 29.074 72.35 26.776 64.119 24.702zM61.499 31.58c0 0-0.36 8.281-12.347 6.1 0 0-7.243 4.322-10.348-2.682-2.478 1.71-7.027-0.096-5.391-5.149-0.569-0.71-2.812-4.938 0.759-8.204 0.828-0.624 2.794-1.974 5.058-2.626 0.011 0.012 0.022 0.023 0.033 0.033 0.818 0.789 1.742 1.502 2.792 2.084l0 0c-0.045 0.085-0.089 0.176-0.133 0.271l0 0c-0.001 0.003-0.002 0.007-0.004 0.009-0.02 0.043-0.041 0.081-0.06 0.127 0.002 0 0.003 0 0.005 0-0.47 1.114-0.835 2.775-0.083 4.388 0 0 8.168 7.157 12.302 1.215 0 0 0.857-2.242 0.309-4.572-0.015-0.003-0.031-0.005-0.045-0.006-0.449-1.694-1.662-3.499-4.502-4.725 0 0-4.25-2.428-7.053 2.166 0 0.007 0 0.012 0.001 0.019-0.554-0.019-1.785-0.173-3.012-1.117-0.011-0.009-0.02-0.018-0.03-0.025 0.194-0.046 0.391-0.085 0.589-0.118l0.155-0.025 0.052-0.149c0.007-0.016 0.666-1.794 2.894-2.832 2.579-1.203 6.123-0.985 10.533 0.646l0.039 0.016 0.043 0.002c0.061 0.001 5.993 0.252 8.528 3.453 1.005 1.271 1.344 2.856 1.013 4.716-0.125 0.548-0.316 1.132-0.582 1.758C63.016 26.349 67.562 30.427 61.499 31.58z" fill="#000000" data-fill-palette-color="accent"></path><polygon points="25.351,74.245 76.001,40.29 77.018,29.932 24.073,63.087  " fill="#000000" data-fill-palette-color="accent"></polygon><polygon points="26.992,93.23 74.834,57.207 75.48,47.83 26.038,82.18  " fill="#000000" data-fill-palette-color="accent"></polygon></g></svg></g></svg></g></svg></g></svg></g></svg></g><defs></defs></svg><rect width="320" height="360" fill="none" stroke="none" visibility="hidden"></rect></g></svg></g></svg>